{
	"patcher" : 	{
		"fileversion" : 1,
		"appversion" : 		{
			"major" : 7,
			"minor" : 0,
			"revision" : 6,
			"architecture" : "x86",
			"modernui" : 1
		}
,
		"rect" : [ 289.0, 79.0, 767.0, 683.0 ],
		"bglocked" : 0,
		"openinpresentation" : 0,
		"default_fontsize" : 12.0,
		"default_fontface" : 0,
		"default_fontname" : "Arial",
		"gridonopen" : 1,
		"gridsize" : [ 15.0, 15.0 ],
		"gridsnaponopen" : 1,
		"objectsnaponopen" : 1,
		"statusbarvisible" : 2,
		"toolbarvisible" : 1,
		"lefttoolbarpinned" : 0,
		"toptoolbarpinned" : 0,
		"righttoolbarpinned" : 0,
		"bottomtoolbarpinned" : 0,
		"toolbars_unpinned_last_save" : 0,
		"tallnewobj" : 0,
		"boxanimatetime" : 200,
		"enablehscroll" : 1,
		"enablevscroll" : 1,
		"devicewidth" : 0.0,
		"description" : "",
		"digest" : "",
		"tags" : "",
		"style" : "",
		"subpatcher_template" : "",
		"boxes" : [ 			{
				"box" : 				{
					"id" : "obj-52",
					"linecount" : 4,
					"maxclass" : "comment",
					"numinlets" : 1,
					"numoutlets" : 0,
					"patching_rect" : [ 140.0, 458.200012, 155.0, 60.0 ],
					"style" : "",
					"text" : "add to running list that becomes a blacklist, filter between tosymbol and the trigger"
				}

			}
, 			{
				"box" : 				{
					"id" : "obj-39",
					"maxclass" : "newobj",
					"numinlets" : 2,
					"numoutlets" : 4,
					"outlettype" : [ "dictionary", "", "", "" ],
					"patching_rect" : [ 169.0, 830.0, 50.5, 22.0 ],
					"saved_object_attributes" : 					{
						"embed" : 0,
						"parameter_enable" : 0
					}
,
					"style" : "",
					"text" : "dict"
				}

			}
, 			{
				"box" : 				{
					"id" : "obj-37",
					"linecount" : 8,
					"maxclass" : "message",
					"numinlets" : 2,
					"numoutlets" : 1,
					"outlettype" : [ "" ],
					"patching_rect" : [ 76.0, 654.0, 50.0, 116.0 ],
					"style" : "",
					"text" : "101 101 101 101 101 101 101 \"101\""
				}

			}
, 			{
				"box" : 				{
					"id" : "obj-30",
					"maxclass" : "message",
					"numinlets" : 2,
					"numoutlets" : 1,
					"outlettype" : [ "" ],
					"patching_rect" : [ 16.899994, 528.999939, 29.5, 22.0 ],
					"style" : "",
					"text" : "set"
				}

			}
, 			{
				"box" : 				{
					"fontname" : "Arial",
					"fontsize" : 12.0,
					"id" : "obj-28",
					"maxclass" : "newobj",
					"numinlets" : 1,
					"numoutlets" : 1,
					"outlettype" : [ "" ],
					"patching_rect" : [ 129.966675, 618.200012, 73.0, 22.0 ],
					"style" : "",
					"text" : "fromsymbol"
				}

			}
, 			{
				"box" : 				{
					"fontname" : "Arial",
					"fontsize" : 12.0,
					"id" : "obj-97",
					"maxclass" : "newobj",
					"numinlets" : 1,
					"numoutlets" : 1,
					"outlettype" : [ "" ],
					"patching_rect" : [ 129.966675, 572.200012, 59.0, 22.0 ],
					"style" : "",
					"text" : "tosymbol"
				}

			}
, 			{
				"box" : 				{
					"fontname" : "Arial",
					"fontsize" : 12.0,
					"id" : "obj-96",
					"maxclass" : "newobj",
					"numinlets" : 1,
					"numoutlets" : 1,
					"outlettype" : [ "" ],
					"patching_rect" : [ 129.966675, 595.200012, 125.0, 22.0 ],
					"style" : "",
					"text" : "sprintf symout set %s"
				}

			}
, 			{
				"box" : 				{
					"fontface" : 0,
					"fontname" : "Arial",
					"fontsize" : 12.0,
					"id" : "obj-89",
					"maxclass" : "newobj",
					"numinlets" : 1,
					"numoutlets" : 1,
					"outlettype" : [ "" ],
					"patching_rect" : [ 107.0, 544.200012, 55.0, 22.0 ],
					"style" : "",
					"text" : "prepend"
				}

			}
, 			{
				"box" : 				{
					"id" : "obj-23",
					"maxclass" : "newobj",
					"numinlets" : 2,
					"numoutlets" : 2,
					"outlettype" : [ "", "" ],
					"patching_rect" : [ 100.466675, 754.0, 56.0, 22.0 ],
					"style" : "",
					"text" : "zl.queue"
				}

			}
, 			{
				"box" : 				{
					"id" : "obj-17",
					"maxclass" : "newobj",
					"numinlets" : 1,
					"numoutlets" : 1,
					"outlettype" : [ "" ],
					"patching_rect" : [ 107.0, 415.0, 20.0, 22.0 ],
					"style" : "",
					"text" : "t l"
				}

			}
, 			{
				"box" : 				{
					"id" : "obj-12",
					"maxclass" : "newobj",
					"numinlets" : 0,
					"numoutlets" : 1,
					"outlettype" : [ "" ],
					"patching_rect" : [ 107.0, 376.0, 60.0, 22.0 ],
					"style" : "",
					"text" : "r grReset"
				}

			}
, 			{
				"box" : 				{
					"id" : "obj-44",
					"maxclass" : "newobj",
					"numinlets" : 1,
					"numoutlets" : 1,
					"outlettype" : [ "bang" ],
					"patching_rect" : [ 16.899994, 384.0, 24.0, 22.0 ],
					"style" : "",
					"text" : "t b"
				}

			}
, 			{
				"box" : 				{
					"id" : "obj-43",
					"maxclass" : "newobj",
					"numinlets" : 1,
					"numoutlets" : 0,
					"patching_rect" : [ 266.75, 1008.800049, 62.0, 22.0 ],
					"style" : "",
					"text" : "s grReset"
				}

			}
, 			{
				"box" : 				{
					"id" : "obj-9",
					"maxclass" : "newobj",
					"numinlets" : 2,
					"numoutlets" : 2,
					"outlettype" : [ "bang", "" ],
					"patching_rect" : [ 26.5, 56.0, 52.0, 22.0 ],
					"style" : "",
					"text" : "select 0"
				}

			}
, 			{
				"box" : 				{
					"comment" : "",
					"id" : "obj-7",
					"maxclass" : "outlet",
					"numinlets" : 1,
					"numoutlets" : 0,
					"patching_rect" : [ 26.5, 82.400055, 30.0, 30.0 ],
					"style" : ""
				}

			}
, 			{
				"box" : 				{
					"comment" : "",
					"id" : "obj-1",
					"maxclass" : "outlet",
					"numinlets" : 1,
					"numoutlets" : 0,
					"patching_rect" : [ 350.75, 1329.0, 30.0, 30.0 ],
					"style" : ""
				}

			}
, 			{
				"box" : 				{
					"id" : "obj-27",
					"maxclass" : "newobj",
					"numinlets" : 2,
					"numoutlets" : 2,
					"outlettype" : [ "bang", "" ],
					"patching_rect" : [ 116.466675, 49.0, 52.0, 22.0 ],
					"style" : "",
					"text" : "select 0"
				}

			}
, 			{
				"box" : 				{
					"id" : "obj-26",
					"maxclass" : "newobj",
					"numinlets" : 0,
					"numoutlets" : 1,
					"outlettype" : [ "" ],
					"patching_rect" : [ 116.466675, 17.0, 61.0, 22.0 ],
					"style" : "",
					"text" : "r wordInd"
				}

			}
, 			{
				"box" : 				{
					"id" : "obj-11",
					"maxclass" : "newobj",
					"numinlets" : 2,
					"numoutlets" : 2,
					"outlettype" : [ "bang", "" ],
					"patching_rect" : [ 16.899994, 458.200012, 52.0, 22.0 ],
					"style" : "",
					"text" : "select 1"
				}

			}
, 			{
				"box" : 				{
					"id" : "obj-8",
					"maxclass" : "toggle",
					"numinlets" : 1,
					"numoutlets" : 1,
					"outlettype" : [ "int" ],
					"parameter_enable" : 0,
					"patching_rect" : [ 16.899994, 415.0, 24.0, 24.0 ],
					"style" : ""
				}

			}
, 			{
				"box" : 				{
					"id" : "obj-106",
					"maxclass" : "newobj",
					"numinlets" : 2,
					"numoutlets" : 2,
					"outlettype" : [ "", "" ],
					"patching_rect" : [ 506.5, 633.0, 64.0, 22.0 ],
					"style" : "",
					"text" : "zl.reg"
				}

			}
, 			{
				"box" : 				{
					"id" : "obj-105",
					"maxclass" : "newobj",
					"numinlets" : 2,
					"numoutlets" : 2,
					"outlettype" : [ "", "" ],
					"patching_rect" : [ 499.75, 336.0, 71.0, 22.0 ],
					"style" : "",
					"text" : "zl.ecils 1"
				}

			}
, 			{
				"box" : 				{
					"bgcolor" : [ 0.290196, 0.309804, 0.301961, 1.0 ],
					"color" : [ 0.54902, 0.584314, 0.705882, 1.0 ],
					"id" : "obj-100",
					"maxclass" : "newobj",
					"numinlets" : 2,
					"numoutlets" : 1,
					"outlettype" : [ "int" ],
					"patching_rect" : [ 430.25, 698.200012, 29.5, 22.0 ],
					"style" : "",
					"text" : "+ 1"
				}

			}
, 			{
				"box" : 				{
					"bgcolor" : [ 0.290196, 0.309804, 0.301961, 1.0 ],
					"color" : [ 0.54902, 0.584314, 0.705882, 1.0 ],
					"id" : "obj-101",
					"maxclass" : "newobj",
					"numinlets" : 2,
					"numoutlets" : 1,
					"outlettype" : [ "int" ],
					"patching_rect" : [ 419.75, 546.0, 29.5, 22.0 ],
					"style" : "",
					"text" : "- 1"
				}

			}
, 			{
				"box" : 				{
					"bgcolor" : [ 0.290196, 0.309804, 0.301961, 1.0 ],
					"color" : [ 0.54902, 0.584314, 0.705882, 1.0 ],
					"id" : "obj-102",
					"maxclass" : "newobj",
					"numinlets" : 2,
					"numoutlets" : 1,
					"outlettype" : [ "int" ],
					"patching_rect" : [ 419.75, 729.0, 29.5, 22.0 ],
					"style" : "",
					"text" : "!-"
				}

			}
, 			{
				"box" : 				{
					"comment" : "Trigger tographeme",
					"id" : "obj-13",
					"maxclass" : "inlet",
					"numinlets" : 0,
					"numoutlets" : 1,
					"outlettype" : [ "bang" ],
					"patching_rect" : [ 570.5, 86.200012, 30.0, 30.0 ],
					"style" : ""
				}

			}
, 			{
				"box" : 				{
					"id" : "obj-138",
					"maxclass" : "newobj",
					"numinlets" : 1,
					"numoutlets" : 1,
					"outlettype" : [ "" ],
					"patching_rect" : [ 350.75, 1297.600098, 139.0, 22.0 ],
					"style" : "",
					"text" : "fromsymbol @separator"
				}

			}
, 			{
				"box" : 				{
					"id" : "obj-124",
					"maxclass" : "newobj",
					"numinlets" : 3,
					"numoutlets" : 1,
					"outlettype" : [ "int" ],
					"patching_rect" : [ 350.75, 1265.600098, 40.0, 22.0 ],
					"style" : "",
					"text" : "itoa"
				}

			}
, 			{
				"box" : 				{
					"id" : "obj-123",
					"maxclass" : "newobj",
					"numinlets" : 3,
					"numoutlets" : 1,
					"outlettype" : [ "list" ],
					"patching_rect" : [ 266.75, 1231.600098, 40.0, 22.0 ],
					"style" : "",
					"text" : "atoi"
				}

			}
, 			{
				"box" : 				{
					"id" : "obj-122",
					"maxclass" : "newobj",
					"numinlets" : 3,
					"numoutlets" : 1,
					"outlettype" : [ "list" ],
					"patching_rect" : [ 266.75, 1127.600098, 40.0, 22.0 ],
					"style" : "",
					"text" : "atoi"
				}

			}
, 			{
				"box" : 				{
					"id" : "obj-119",
					"maxclass" : "newobj",
					"numinlets" : 2,
					"numoutlets" : 2,
					"outlettype" : [ "", "" ],
					"patching_rect" : [ 350.75, 1231.600098, 57.0, 22.0 ],
					"style" : "",
					"text" : "zl.ecils 1"
				}

			}
, 			{
				"box" : 				{
					"id" : "obj-116",
					"maxclass" : "newobj",
					"numinlets" : 1,
					"numoutlets" : 1,
					"outlettype" : [ "" ],
					"patching_rect" : [ 266.75, 1151.600098, 67.0, 22.0 ],
					"style" : "",
					"text" : "append 44"
				}

			}
, 			{
				"box" : 				{
					"id" : "obj-115",
					"maxclass" : "newobj",
					"numinlets" : 1,
					"numoutlets" : 1,
					"outlettype" : [ "" ],
					"patching_rect" : [ 266.75, 1207.600098, 66.0, 22.0 ],
					"style" : "",
					"text" : "append \" \""
				}

			}
, 			{
				"box" : 				{
					"id" : "obj-112",
					"maxclass" : "newobj",
					"numinlets" : 0,
					"numoutlets" : 1,
					"outlettype" : [ "" ],
					"patching_rect" : [ 655.0, 261.200012, 68.0, 22.0 ],
					"style" : "",
					"text" : "r newWord"
				}

			}
, 			{
				"box" : 				{
					"id" : "obj-111",
					"maxclass" : "newobj",
					"numinlets" : 2,
					"numoutlets" : 2,
					"outlettype" : [ "", "" ],
					"patching_rect" : [ 655.0, 298.0, 40.0, 22.0 ],
					"style" : "",
					"text" : "zl.reg"
				}

			}
, 			{
				"box" : 				{
					"id" : "obj-110",
					"maxclass" : "newobj",
					"numinlets" : 0,
					"numoutlets" : 1,
					"outlettype" : [ "" ],
					"patching_rect" : [ 266.75, 1183.600098, 61.0, 22.0 ],
					"style" : "",
					"text" : "r wordInd"
				}

			}
, 			{
				"box" : 				{
					"id" : "obj-109",
					"maxclass" : "newobj",
					"numinlets" : 2,
					"numoutlets" : 2,
					"outlettype" : [ "", "" ],
					"patching_rect" : [ 350.75, 1200.600098, 40.0, 22.0 ],
					"style" : "",
					"text" : "zl.join"
				}

			}
, 			{
				"box" : 				{
					"id" : "obj-108",
					"maxclass" : "newobj",
					"numinlets" : 2,
					"numoutlets" : 2,
					"outlettype" : [ "", "" ],
					"patching_rect" : [ 585.5, 298.0, 42.0, 22.0 ],
					"style" : "",
					"text" : "zl.reg"
				}

			}
, 			{
				"box" : 				{
					"id" : "obj-107",
					"maxclass" : "newobj",
					"numinlets" : 0,
					"numoutlets" : 1,
					"outlettype" : [ "" ],
					"patching_rect" : [ 585.5, 261.200012, 68.0, 22.0 ],
					"style" : "",
					"text" : "r newWord"
				}

			}
, 			{
				"box" : 				{
					"id" : "obj-104",
					"maxclass" : "newobj",
					"numinlets" : 0,
					"numoutlets" : 1,
					"outlettype" : [ "" ],
					"patching_rect" : [ 266.75, 1103.600098, 59.0, 22.0 ],
					"style" : "",
					"text" : "r wordStr"
				}

			}
, 			{
				"box" : 				{
					"id" : "obj-103",
					"maxclass" : "newobj",
					"numinlets" : 2,
					"numoutlets" : 2,
					"outlettype" : [ "", "" ],
					"patching_rect" : [ 350.75, 1151.600098, 40.0, 22.0 ],
					"style" : "",
					"text" : "zl.join"
				}

			}
, 			{
				"box" : 				{
					"id" : "obj-98",
					"maxclass" : "newobj",
					"numinlets" : 1,
					"numoutlets" : 0,
					"patching_rect" : [ 655.0, 329.0, 63.0, 22.0 ],
					"style" : "",
					"text" : "s wordInd"
				}

			}
, 			{
				"box" : 				{
					"id" : "obj-95",
					"maxclass" : "newobj",
					"numinlets" : 1,
					"numoutlets" : 0,
					"patching_rect" : [ 585.5, 329.0, 61.0, 22.0 ],
					"style" : "",
					"text" : "s wordStr"
				}

			}
, 			{
				"box" : 				{
					"id" : "obj-91",
					"maxclass" : "newobj",
					"numinlets" : 1,
					"numoutlets" : 1,
					"outlettype" : [ "bang" ],
					"patching_rect" : [ 266.75, 1066.600098, 24.0, 22.0 ],
					"style" : "",
					"text" : "t b"
				}

			}
, 			{
				"box" : 				{
					"id" : "obj-83",
					"maxclass" : "newobj",
					"numinlets" : 0,
					"numoutlets" : 1,
					"outlettype" : [ "" ],
					"patching_rect" : [ 266.75, 1039.800049, 68.0, 22.0 ],
					"style" : "",
					"text" : "r newWord"
				}

			}
, 			{
				"box" : 				{
					"id" : "obj-80",
					"maxclass" : "newobj",
					"numinlets" : 1,
					"numoutlets" : 1,
					"outlettype" : [ "" ],
					"patching_rect" : [ 350.75, 1073.600098, 67.0, 22.0 ],
					"style" : "",
					"text" : "append 44"
				}

			}
, 			{
				"box" : 				{
					"id" : "obj-75",
					"maxclass" : "newobj",
					"numinlets" : 2,
					"numoutlets" : 2,
					"outlettype" : [ "", "" ],
					"patching_rect" : [ 350.75, 1109.600098, 53.0, 22.0 ],
					"style" : "",
					"text" : "zl.group"
				}

			}
, 			{
				"box" : 				{
					"id" : "obj-57",
					"maxclass" : "newobj",
					"numinlets" : 1,
					"numoutlets" : 2,
					"outlettype" : [ "bang", "bang" ],
					"patching_rect" : [ 570.5, 147.200012, 34.0, 22.0 ],
					"style" : "",
					"text" : "t b b"
				}

			}
, 			{
				"box" : 				{
					"id" : "obj-56",
					"maxclass" : "newobj",
					"numinlets" : 1,
					"numoutlets" : 0,
					"patching_rect" : [ 30.999992, 490.999939, 68.0, 22.0 ],
					"style" : "",
					"text" : "s endWord"
				}

			}
, 			{
				"box" : 				{
					"id" : "obj-54",
					"maxclass" : "newobj",
					"numinlets" : 0,
					"numoutlets" : 1,
					"outlettype" : [ "" ],
					"patching_rect" : [ 617.5, 155.200012, 66.0, 22.0 ],
					"style" : "",
					"text" : "r endWord"
				}

			}
, 			{
				"box" : 				{
					"id" : "obj-46",
					"maxclass" : "toggle",
					"numinlets" : 1,
					"numoutlets" : 1,
					"outlettype" : [ "int" ],
					"parameter_enable" : 0,
					"patching_rect" : [ 116.466675, 85.400055, 24.0, 24.0 ],
					"style" : ""
				}

			}
, 			{
				"box" : 				{
					"id" : "obj-38",
					"maxclass" : "newobj",
					"numinlets" : 1,
					"numoutlets" : 0,
					"patching_rect" : [ 585.5, 229.200012, 70.0, 22.0 ],
					"style" : "",
					"text" : "s newWord"
				}

			}
, 			{
				"box" : 				{
					"id" : "obj-35",
					"maxclass" : "newobj",
					"numinlets" : 2,
					"numoutlets" : 1,
					"outlettype" : [ "bang" ],
					"patching_rect" : [ 194.466675, 84.400055, 65.0, 22.0 ],
					"style" : "",
					"text" : "metro 200"
				}

			}
, 			{
				"box" : 				{
					"id" : "obj-31",
					"maxclass" : "newobj",
					"numinlets" : 2,
					"numoutlets" : 1,
					"outlettype" : [ "" ],
					"patching_rect" : [ 116.466675, 124.200012, 55.0, 22.0 ],
					"style" : "",
					"text" : "gate"
				}

			}
, 			{
				"box" : 				{
					"id" : "obj-10",
					"maxclass" : "button",
					"numinlets" : 1,
					"numoutlets" : 1,
					"outlettype" : [ "bang" ],
					"patching_rect" : [ 585.5, 198.200012, 24.0, 24.0 ],
					"style" : ""
				}

			}
, 			{
				"box" : 				{
					"id" : "obj-58",
					"maxclass" : "newobj",
					"numinlets" : 1,
					"numoutlets" : 4,
					"outlettype" : [ "", "", "", "" ],
					"patching_rect" : [ 404.25, 229.200012, 84.0, 22.0 ],
					"saved_object_attributes" : 					{
						"embed" : 0
					}
,
					"style" : "",
					"text" : "coll wordbank"
				}

			}
, 			{
				"box" : 				{
					"id" : "obj-79",
					"maxclass" : "message",
					"numinlets" : 2,
					"numoutlets" : 1,
					"outlettype" : [ "" ],
					"patching_rect" : [ 67.0, 160.200012, 44.0, 22.0 ],
					"style" : "",
					"text" : "goto 0"
				}

			}
, 			{
				"box" : 				{
					"id" : "obj-73",
					"maxclass" : "newobj",
					"numinlets" : 1,
					"numoutlets" : 2,
					"outlettype" : [ "bang", "int" ],
					"patching_rect" : [ 58.96666, 415.0, 34.0, 22.0 ],
					"style" : "",
					"text" : "t b 0"
				}

			}
, 			{
				"box" : 				{
					"id" : "obj-64",
					"maxclass" : "newobj",
					"numinlets" : 5,
					"numoutlets" : 4,
					"outlettype" : [ "int", "", "", "int" ],
					"patching_rect" : [ 16.899994, 352.0, 82.099998, 22.0 ],
					"style" : "",
					"text" : "counter"
				}

			}
, 			{
				"box" : 				{
					"id" : "obj-62",
					"maxclass" : "newobj",
					"numinlets" : 2,
					"numoutlets" : 2,
					"outlettype" : [ "", "" ],
					"patching_rect" : [ 20.0, 234.0, 79.0, 22.0 ],
					"style" : "",
					"text" : "route symbol"
				}

			}
, 			{
				"box" : 				{
					"id" : "obj-55",
					"maxclass" : "message",
					"numinlets" : 2,
					"numoutlets" : 1,
					"outlettype" : [ "" ],
					"patching_rect" : [ 20.0, 160.200012, 43.0, 22.0 ],
					"style" : "",
					"text" : "length"
				}

			}
, 			{
				"box" : 				{
					"id" : "obj-53",
					"maxclass" : "newobj",
					"numinlets" : 1,
					"numoutlets" : 2,
					"outlettype" : [ "bang", "" ],
					"patching_rect" : [ 107.0, 301.0, 79.0, 22.0 ],
					"style" : "",
					"text" : "t b l"
				}

			}
, 			{
				"box" : 				{
					"id" : "obj-47",
					"maxclass" : "message",
					"numinlets" : 2,
					"numoutlets" : 1,
					"outlettype" : [ "" ],
					"patching_rect" : [ 116.466675, 160.200012, 33.0, 22.0 ],
					"style" : "",
					"text" : "next"
				}

			}
, 			{
				"box" : 				{
					"id" : "obj-20",
					"maxclass" : "newobj",
					"numinlets" : 3,
					"numoutlets" : 1,
					"outlettype" : [ "list" ],
					"patching_rect" : [ 404.25, 298.0, 40.0, 22.0 ],
					"style" : "",
					"text" : "atoi"
				}

			}
, 			{
				"box" : 				{
					"id" : "obj-18",
					"maxclass" : "newobj",
					"numinlets" : 3,
					"numoutlets" : 1,
					"outlettype" : [ "list" ],
					"patching_rect" : [ 107.0, 267.799988, 40.0, 22.0 ],
					"style" : "",
					"text" : "atoi"
				}

			}
, 			{
				"box" : 				{
					"id" : "obj-63",
					"maxclass" : "newobj",
					"numinlets" : 1,
					"numoutlets" : 1,
					"outlettype" : [ "" ],
					"patching_rect" : [ 350.75, 1039.800049, 73.0, 22.0 ],
					"style" : "",
					"text" : "fromsymbol"
				}

			}
, 			{
				"box" : 				{
					"id" : "obj-50",
					"maxclass" : "newobj",
					"numinlets" : 1,
					"numoutlets" : 1,
					"outlettype" : [ "" ],
					"patching_rect" : [ 167.0, 336.0, 59.0, 22.0 ],
					"style" : "",
					"text" : "tosymbol"
				}

			}
, 			{
				"box" : 				{
					"id" : "obj-49",
					"maxclass" : "newobj",
					"numinlets" : 1,
					"numoutlets" : 1,
					"outlettype" : [ "" ],
					"patching_rect" : [ 370.75, 917.800049, 59.0, 22.0 ],
					"style" : "",
					"text" : "tosymbol"
				}

			}
, 			{
				"box" : 				{
					"id" : "obj-3",
					"maxclass" : "newobj",
					"numinlets" : 2,
					"numoutlets" : 2,
					"outlettype" : [ "", "" ],
					"patching_rect" : [ 385.25, 759.599976, 53.5, 22.0 ],
					"style" : "",
					"text" : "zl.rot"
				}

			}
, 			{
				"box" : 				{
					"id" : "obj-5",
					"maxclass" : "newobj",
					"numinlets" : 2,
					"numoutlets" : 2,
					"outlettype" : [ "", "" ],
					"patching_rect" : [ 385.25, 633.0, 76.5, 22.0 ],
					"style" : "",
					"text" : "zl.reg"
				}

			}
, 			{
				"box" : 				{
					"color" : [ 0.54902, 0.584314, 0.705882, 1.0 ],
					"id" : "obj-45",
					"maxclass" : "newobj",
					"numinlets" : 2,
					"numoutlets" : 3,
					"outlettype" : [ "bang", "bang", "int" ],
					"patching_rect" : [ 350.75, 577.200012, 88.0, 22.0 ],
					"style" : "",
					"text" : "uzi"
				}

			}
, 			{
				"box" : 				{
					"id" : "obj-42",
					"maxclass" : "newobj",
					"numinlets" : 1,
					"numoutlets" : 2,
					"outlettype" : [ "bang", "" ],
					"patching_rect" : [ 350.75, 889.800049, 39.0, 22.0 ],
					"style" : "",
					"text" : "t b l"
				}

			}
, 			{
				"box" : 				{
					"id" : "obj-41",
					"maxclass" : "message",
					"numinlets" : 2,
					"numoutlets" : 1,
					"outlettype" : [ "" ],
					"patching_rect" : [ 350.75, 974.800049, 137.0, 22.0 ],
					"style" : "",
					"text" : "\"99 101\""
				}

			}
, 			{
				"box" : 				{
					"id" : "obj-6",
					"maxclass" : "newobj",
					"numinlets" : 1,
					"numoutlets" : 2,
					"outlettype" : [ "bang", "" ],
					"patching_rect" : [ 350.75, 485.0, 137.0, 22.0 ],
					"style" : "",
					"text" : "t b l"
				}

			}
, 			{
				"box" : 				{
					"id" : "obj-14",
					"maxclass" : "newobj",
					"numinlets" : 1,
					"numoutlets" : 1,
					"outlettype" : [ "" ],
					"patching_rect" : [ 370.75, 945.800049, 74.0, 22.0 ],
					"style" : "",
					"text" : "prepend set"
				}

			}
, 			{
				"box" : 				{
					"id" : "obj-32",
					"maxclass" : "newobj",
					"numinlets" : 1,
					"numoutlets" : 1,
					"outlettype" : [ "" ],
					"patching_rect" : [ 350.75, 1008.800049, 53.5, 22.0 ],
					"style" : "",
					"text" : "match"
				}

			}
, 			{
				"box" : 				{
					"id" : "obj-24",
					"maxclass" : "newobj",
					"numinlets" : 2,
					"numoutlets" : 2,
					"outlettype" : [ "", "" ],
					"patching_rect" : [ 350.75, 818.800049, 53.5, 22.0 ],
					"style" : "",
					"text" : "zl.reg"
				}

			}
, 			{
				"box" : 				{
					"id" : "obj-19",
					"maxclass" : "newobj",
					"numinlets" : 2,
					"numoutlets" : 3,
					"outlettype" : [ "bang", "bang", "int" ],
					"patching_rect" : [ 350.75, 789.800049, 72.25, 22.0 ],
					"style" : "",
					"text" : "uzi"
				}

			}
, 			{
				"box" : 				{
					"id" : "obj-22",
					"maxclass" : "newobj",
					"numinlets" : 2,
					"numoutlets" : 2,
					"outlettype" : [ "", "" ],
					"patching_rect" : [ 350.75, 847.800049, 72.25, 22.0 ],
					"style" : "",
					"text" : "zl.slice"
				}

			}
, 			{
				"box" : 				{
					"id" : "obj-25",
					"maxclass" : "newobj",
					"numinlets" : 2,
					"numoutlets" : 2,
					"outlettype" : [ "", "" ],
					"patching_rect" : [ 404.25, 336.0, 39.0, 22.0 ],
					"style" : "",
					"text" : "zl.len"
				}

			}
, 			{
				"box" : 				{
					"id" : "obj-16",
					"maxclass" : "newobj",
					"numinlets" : 2,
					"numoutlets" : 2,
					"outlettype" : [ "", "" ],
					"patching_rect" : [ 404.25, 261.200012, 79.0, 22.0 ],
					"style" : "",
					"text" : "route symbol"
				}

			}
, 			{
				"box" : 				{
					"id" : "obj-21",
					"maxclass" : "newobj",
					"numinlets" : 2,
					"numoutlets" : 2,
					"outlettype" : [ "", "" ],
					"patching_rect" : [ 107.0, 234.0, 79.0, 22.0 ],
					"style" : "",
					"text" : "route symbol"
				}

			}
, 			{
				"box" : 				{
					"coll_data" : 					{
						"count" : 143,
						"data" : [ 							{
								"key" : "a",
								"value" : [ "{a}{ā}{ā}{ə}{e}{o}{ä}{ô}" ]
							}
, 							{
								"key" : "ae",
								"value" : [ "{e}" ]
							}
, 							{
								"key" : "ai",
								"value" : [ "{a}{e}{ī}" ]
							}
, 							{
								"key" : "aigh",
								"value" : [ "{ā}" ]
							}
, 							{
								"key" : "air",
								"value" : [ "{ã}" ]
							}
, 							{
								"key" : "ar",
								"value" : [ "{ä}{ô}{ə}" ]
							}
, 							{
								"key" : "are",
								"value" : [ "{ã}" ]
							}
, 							{
								"key" : "au",
								"value" : [ "{a}{ā}{o}{ä}{ô}" ]
							}
, 							{
								"key" : "augh",
								"value" : [ "{ô}" ]
							}
, 							{
								"key" : "aw",
								"value" : [ "{o}{ô}" ]
							}
, 							{
								"key" : "ay",
								"value" : [ "{e}{ē}{ā}" ]
							}
, 							{
								"key" : "ayer",
								"value" : [ "{ã}" ]
							}
, 							{
								"key" : "b",
								"value" : [ "{b}" ]
							}
, 							{
								"key" : "bb",
								"value" : [ "{b}" ]
							}
, 							{
								"key" : "c",
								"value" : [ "{s}{k}" ]
							}
, 							{
								"key" : "cc",
								"value" : [ "{k}" ]
							}
, 							{
								"key" : "ce",
								"value" : [ "{s}{sh}" ]
							}
, 							{
								"key" : "ch",
								"value" : [ "{ch}{sh}{k}" ]
							}
, 							{
								"key" : "ci",
								"value" : [ "{sh}" ]
							}
, 							{
								"key" : "ck",
								"value" : [ "{k}" ]
							}
, 							{
								"key" : "d",
								"value" : [ "{d}" ]
							}
, 							{
								"key" : "dd",
								"value" : [ "{d}" ]
							}
, 							{
								"key" : "dge",
								"value" : [ "{j}" ]
							}
, 							{
								"key" : "di",
								"value" : [ "{j}" ]
							}
, 							{
								"key" : "e",
								"value" : [ "{e}{ē}{i}{ə}" ]
							}
, 							{
								"key" : "ea",
								"value" : [ "{ā}{e}{ē}" ]
							}
, 							{
								"key" : "ear",
								"value" : [ "{ã}{ä}{ēə}{û}" ]
							}
, 							{
								"key" : "eau",
								"value" : [ "{yü}{ō}" ]
							}
, 							{
								"key" : "ed",
								"value" : [ "{d}{t}" ]
							}
, 							{
								"key" : "ee",
								"value" : [ "{ē}" ]
							}
, 							{
								"key" : "eer",
								"value" : [ "{ēə}" ]
							}
, 							{
								"key" : "ei",
								"value" : [ "{ā}{e}{ē}" ]
							}
, 							{
								"key" : "eigh",
								"value" : [ "{ā}{ī}" ]
							}
, 							{
								"key" : "eir",
								"value" : [ "{ã}" ]
							}
, 							{
								"key" : "eo",
								"value" : [ "{e}{ē}" ]
							}
, 							{
								"key" : "er",
								"value" : [ "{ä}{û}{ā}{ə}" ]
							}
, 							{
								"key" : "ere",
								"value" : [ "{ã}{ēə}" ]
							}
, 							{
								"key" : "et",
								"value" : [ "{ā}" ]
							}
, 							{
								"key" : "eu",
								"value" : [ "{yü}" ]
							}
, 							{
								"key" : "eue",
								"value" : [ "{yü}" ]
							}
, 							{
								"key" : "eur",
								"value" : [ "{ə}" ]
							}
, 							{
								"key" : "ew",
								"value" : [ "{yü}{ō}{ū}" ]
							}
, 							{
								"key" : "ey",
								"value" : [ "{ā}{ē}" ]
							}
, 							{
								"key" : "f",
								"value" : [ "{f}{v}" ]
							}
, 							{
								"key" : "ff",
								"value" : [ "{f}" ]
							}
, 							{
								"key" : "ft",
								"value" : [ "{f}" ]
							}
, 							{
								"key" : "g",
								"value" : [ "{g}{j}" ]
							}
, 							{
								"key" : "ge",
								"value" : [ "{j}" ]
							}
, 							{
								"key" : "gg",
								"value" : [ "{g}{j}" ]
							}
, 							{
								"key" : "gh",
								"value" : [ "{f}{g}" ]
							}
, 							{
								"key" : "gn",
								"value" : [ "{n}" ]
							}
, 							{
								"key" : "gu",
								"value" : [ "{g}" ]
							}
, 							{
								"key" : "gue",
								"value" : [ "{g}" ]
							}
, 							{
								"key" : "h",
								"value" : [ "{h}" ]
							}
, 							{
								"key" : "ho",
								"value" : [ "{o}" ]
							}
, 							{
								"key" : "i",
								"value" : [ "{ē}{i}{ī}{ə}{y}" ]
							}
, 							{
								"key" : "ie",
								"value" : [ "{e}{ē}{i}{ī}" ]
							}
, 							{
								"key" : "ier",
								"value" : [ "{ēə}" ]
							}
, 							{
								"key" : "ieu",
								"value" : [ "{yü}" ]
							}
, 							{
								"key" : "iew",
								"value" : [ "{yü}" ]
							}
, 							{
								"key" : "igh",
								"value" : [ "{ī}" ]
							}
, 							{
								"key" : "ir",
								"value" : [ "{û}" ]
							}
, 							{
								"key" : "is",
								"value" : [ "{ī}" ]
							}
, 							{
								"key" : "j",
								"value" : [ "{j}{y}" ]
							}
, 							{
								"key" : "k",
								"value" : [ "{k}" ]
							}
, 							{
								"key" : "kn",
								"value" : [ "{n}" ]
							}
, 							{
								"key" : "l",
								"value" : [ "{l}" ]
							}
, 							{
								"key" : "lf",
								"value" : [ "{f}" ]
							}
, 							{
								"key" : "lk",
								"value" : [ "{k}" ]
							}
, 							{
								"key" : "ll",
								"value" : [ "{l}" ]
							}
, 							{
								"key" : "lm",
								"value" : [ "{m}" ]
							}
, 							{
								"key" : "m",
								"value" : [ "{m}" ]
							}
, 							{
								"key" : "mb",
								"value" : [ "{m}" ]
							}
, 							{
								"key" : "mm",
								"value" : [ "{m}" ]
							}
, 							{
								"key" : "mn",
								"value" : [ "{m}" ]
							}
, 							{
								"key" : "n",
								"value" : [ "{n}{ng}" ]
							}
, 							{
								"key" : "ng",
								"value" : [ "{ng}" ]
							}
, 							{
								"key" : "ngue",
								"value" : [ "{ng}" ]
							}
, 							{
								"key" : "nn",
								"value" : [ "{n}" ]
							}
, 							{
								"key" : "o",
								"value" : [ "{o}{ō}{oo}{u}{ū}{i}{w}" ]
							}
, 							{
								"key" : "oa",
								"value" : [ "{ō}" ]
							}
, 							{
								"key" : "oar",
								"value" : [ "{ô}" ]
							}
, 							{
								"key" : "oe",
								"value" : [ "{ē}" ]
							}
, 							{
								"key" : "oe",
								"value" : [ "{ō}{ū}" ]
							}
, 							{
								"key" : "oew",
								"value" : [ "{ū}" ]
							}
, 							{
								"key" : "oi",
								"value" : [ "{oi}" ]
							}
, 							{
								"key" : "oo",
								"value" : [ "{u}{ū}{ō}{oo}" ]
							}
, 							{
								"key" : "oor",
								"value" : [ "{ô}" ]
							}
, 							{
								"key" : "or",
								"value" : [ "{û}{ə}{ô}" ]
							}
, 							{
								"key" : "ore",
								"value" : [ "{ô}" ]
							}
, 							{
								"key" : "ou",
								"value" : [ "{oo}{u}{ow}{ū}" ]
							}
, 							{
								"key" : "ough",
								"value" : [ "{o}{ow}{ô}{ō}{ū}" ]
							}
, 							{
								"key" : "our",
								"value" : [ "{û}{üə}{ə}{ô}" ]
							}
, 							{
								"key" : "ow",
								"value" : [ "{ow}{ō}" ]
							}
, 							{
								"key" : "oy",
								"value" : [ "{oi}" ]
							}
, 							{
								"key" : "p",
								"value" : [ "{p}" ]
							}
, 							{
								"key" : "ph",
								"value" : [ "{f}{v}" ]
							}
, 							{
								"key" : "pn",
								"value" : [ "{n}" ]
							}
, 							{
								"key" : "pp",
								"value" : [ "{p}" ]
							}
, 							{
								"key" : "ps",
								"value" : [ "{s}" ]
							}
, 							{
								"key" : "q",
								"value" : [ "{k}" ]
							}
, 							{
								"key" : "qu",
								"value" : [ "{k}" ]
							}
, 							{
								"key" : "r",
								"value" : [ "{r}" ]
							}
, 							{
								"key" : "re",
								"value" : [ "{ə}" ]
							}
, 							{
								"key" : "rh",
								"value" : [ "{r}" ]
							}
, 							{
								"key" : "rr",
								"value" : [ "{r}" ]
							}
, 							{
								"key" : "s",
								"value" : [ "{s}{z}{sh}{zh}" ]
							}
, 							{
								"key" : "sc",
								"value" : [ "{s}" ]
							}
, 							{
								"key" : "sci",
								"value" : [ "{sh}" ]
							}
, 							{
								"key" : "se",
								"value" : [ "{s}{z}" ]
							}
, 							{
								"key" : "sh",
								"value" : [ "{sh}" ]
							}
, 							{
								"key" : "si",
								"value" : [ "{sh}{zh}" ]
							}
, 							{
								"key" : "ss",
								"value" : [ "{s}{z}" ]
							}
, 							{
								"key" : "st",
								"value" : [ "{s}" ]
							}
, 							{
								"key" : "t",
								"value" : [ "{t}" ]
							}
, 							{
								"key" : "tch",
								"value" : [ "{ch}" ]
							}
, 							{
								"key" : "te",
								"value" : [ "{ch}" ]
							}
, 							{
								"key" : "th",
								"value" : [ "{t}{th}" ]
							}
, 							{
								"key" : "ti",
								"value" : [ "{ch}{sh}" ]
							}
, 							{
								"key" : "tt",
								"value" : [ "{t}" ]
							}
, 							{
								"key" : "tu",
								"value" : [ "{ch}" ]
							}
, 							{
								"key" : "u",
								"value" : [ "{e}{i}{oo}{u}{yü}{w}" ]
							}
, 							{
								"key" : "ue",
								"value" : [ "{ū}" ]
							}
, 							{
								"key" : "ui",
								"value" : [ "{i}{ū}" ]
							}
, 							{
								"key" : "ul",
								"value" : [ "{yü}" ]
							}
, 							{
								"key" : "uoy",
								"value" : [ "{oi}" ]
							}
, 							{
								"key" : "ur",
								"value" : [ "{û}{ə}" ]
							}
, 							{
								"key" : "ure",
								"value" : [ "{üə}" ]
							}
, 							{
								"key" : "uy",
								"value" : [ "{ī}" ]
							}
, 							{
								"key" : "v",
								"value" : [ "{v}" ]
							}
, 							{
								"key" : "ve",
								"value" : [ "{v}" ]
							}
, 							{
								"key" : "w",
								"value" : [ "{w}" ]
							}
, 							{
								"key" : "wh",
								"value" : [ "{h}{w}" ]
							}
, 							{
								"key" : "wr",
								"value" : [ "{r}" ]
							}
, 							{
								"key" : "x",
								"value" : [ "{z}{k}" ]
							}
, 							{
								"key" : "y",
								"value" : [ "{y}{ē}{i}{ī}" ]
							}
, 							{
								"key" : "ye",
								"value" : [ "{ī}" ]
							}
, 							{
								"key" : "you",
								"value" : [ "{yü}" ]
							}
, 							{
								"key" : "yr",
								"value" : [ "{û}" ]
							}
, 							{
								"key" : "yu",
								"value" : [ "{yü}" ]
							}
, 							{
								"key" : "z",
								"value" : [ "{z}{zh}" ]
							}
, 							{
								"key" : "ze",
								"value" : [ "{z}" ]
							}
, 							{
								"key" : "zz",
								"value" : [ "{z}" ]
							}
 ]
					}
,
					"id" : "obj-15",
					"maxclass" : "newobj",
					"numinlets" : 1,
					"numoutlets" : 4,
					"outlettype" : [ "", "", "", "" ],
					"patching_rect" : [ 20.0, 198.0, 166.0, 22.0 ],
					"saved_object_attributes" : 					{
						"embed" : 1
					}
,
					"style" : "",
					"text" : "coll graphemes"
				}

			}
, 			{
				"box" : 				{
					"comment" : "wordbank in",
					"id" : "obj-2",
					"maxclass" : "inlet",
					"numinlets" : 0,
					"numoutlets" : 1,
					"outlettype" : [ "" ],
					"patching_rect" : [ 404.25, 183.200012, 30.0, 30.0 ],
					"style" : ""
				}

			}
 ],
		"lines" : [ 			{
				"patchline" : 				{
					"destination" : [ "obj-38", 0 ],
					"disabled" : 0,
					"hidden" : 0,
					"source" : [ "obj-10", 0 ]
				}

			}
, 			{
				"patchline" : 				{
					"destination" : [ "obj-58", 0 ],
					"disabled" : 0,
					"hidden" : 0,
					"midpoints" : [ 595.0, 225.0, 500.0, 225.0, 500.0, 225.0, 413.75, 225.0 ],
					"source" : [ "obj-10", 0 ]
				}

			}
, 			{
				"patchline" : 				{
					"destination" : [ "obj-102", 1 ],
					"disabled" : 0,
					"hidden" : 0,
					"source" : [ "obj-100", 0 ]
				}

			}
, 			{
				"patchline" : 				{
					"destination" : [ "obj-45", 1 ],
					"disabled" : 0,
					"hidden" : 0,
					"source" : [ "obj-101", 0 ]
				}

			}
, 			{
				"patchline" : 				{
					"destination" : [ "obj-3", 1 ],
					"disabled" : 0,
					"hidden" : 0,
					"source" : [ "obj-102", 0 ]
				}

			}
, 			{
				"patchline" : 				{
					"destination" : [ "obj-109", 1 ],
					"disabled" : 0,
					"hidden" : 0,
					"midpoints" : [ 360.25, 1182.0, 381.25, 1182.0 ],
					"source" : [ "obj-103", 0 ]
				}

			}
, 			{
				"patchline" : 				{
					"destination" : [ "obj-122", 0 ],
					"disabled" : 0,
					"hidden" : 0,
					"source" : [ "obj-104", 0 ]
				}

			}
, 			{
				"patchline" : 				{
					"destination" : [ "obj-106", 1 ],
					"disabled" : 0,
					"hidden" : 0,
					"source" : [ "obj-105", 1 ]
				}

			}
, 			{
				"patchline" : 				{
					"destination" : [ "obj-42", 0 ],
					"disabled" : 0,
					"hidden" : 0,
					"midpoints" : [ 516.0, 683.0, 515.75, 683.0, 515.75, 878.0, 360.25, 878.0 ],
					"source" : [ "obj-106", 0 ]
				}

			}
, 			{
				"patchline" : 				{
					"destination" : [ "obj-108", 0 ],
					"disabled" : 0,
					"hidden" : 0,
					"source" : [ "obj-107", 0 ]
				}

			}
, 			{
				"patchline" : 				{
					"destination" : [ "obj-95", 0 ],
					"disabled" : 0,
					"hidden" : 0,
					"source" : [ "obj-108", 0 ]
				}

			}
, 			{
				"patchline" : 				{
					"destination" : [ "obj-119", 0 ],
					"disabled" : 0,
					"hidden" : 0,
					"source" : [ "obj-109", 0 ]
				}

			}
, 			{
				"patchline" : 				{
					"destination" : [ "obj-30", 0 ],
					"disabled" : 0,
					"hidden" : 0,
					"source" : [ "obj-11", 0 ]
				}

			}
, 			{
				"patchline" : 				{
					"destination" : [ "obj-56", 0 ],
					"disabled" : 0,
					"hidden" : 0,
					"source" : [ "obj-11", 0 ]
				}

			}
, 			{
				"patchline" : 				{
					"destination" : [ "obj-115", 0 ],
					"disabled" : 0,
					"hidden" : 0,
					"source" : [ "obj-110", 0 ]
				}

			}
, 			{
				"patchline" : 				{
					"destination" : [ "obj-98", 0 ],
					"disabled" : 0,
					"hidden" : 0,
					"source" : [ "obj-111", 0 ]
				}

			}
, 			{
				"patchline" : 				{
					"destination" : [ "obj-111", 0 ],
					"disabled" : 0,
					"hidden" : 0,
					"source" : [ "obj-112", 0 ]
				}

			}
, 			{
				"patchline" : 				{
					"destination" : [ "obj-123", 0 ],
					"disabled" : 0,
					"hidden" : 0,
					"source" : [ "obj-115", 0 ]
				}

			}
, 			{
				"patchline" : 				{
					"destination" : [ "obj-103", 0 ],
					"disabled" : 0,
					"hidden" : 0,
					"source" : [ "obj-116", 0 ]
				}

			}
, 			{
				"patchline" : 				{
					"destination" : [ "obj-124", 0 ],
					"disabled" : 0,
					"hidden" : 0,
					"source" : [ "obj-119", 0 ]
				}

			}
, 			{
				"patchline" : 				{
					"destination" : [ "obj-17", 0 ],
					"disabled" : 0,
					"hidden" : 0,
					"source" : [ "obj-12", 0 ]
				}

			}
, 			{
				"patchline" : 				{
					"destination" : [ "obj-116", 0 ],
					"disabled" : 0,
					"hidden" : 0,
					"source" : [ "obj-122", 0 ]
				}

			}
, 			{
				"patchline" : 				{
					"destination" : [ "obj-109", 0 ],
					"disabled" : 0,
					"hidden" : 0,
					"source" : [ "obj-123", 0 ]
				}

			}
, 			{
				"patchline" : 				{
					"destination" : [ "obj-138", 0 ],
					"disabled" : 0,
					"hidden" : 0,
					"source" : [ "obj-124", 0 ]
				}

			}
, 			{
				"patchline" : 				{
					"destination" : [ "obj-57", 0 ],
					"disabled" : 0,
					"hidden" : 0,
					"source" : [ "obj-13", 0 ]
				}

			}
, 			{
				"patchline" : 				{
					"destination" : [ "obj-1", 0 ],
					"disabled" : 0,
					"hidden" : 0,
					"source" : [ "obj-138", 0 ]
				}

			}
, 			{
				"patchline" : 				{
					"destination" : [ "obj-32", 0 ],
					"disabled" : 0,
					"hidden" : 0,
					"source" : [ "obj-14", 0 ]
				}

			}
, 			{
				"patchline" : 				{
					"destination" : [ "obj-21", 0 ],
					"disabled" : 0,
					"hidden" : 0,
					"source" : [ "obj-15", 1 ]
				}

			}
, 			{
				"patchline" : 				{
					"destination" : [ "obj-62", 0 ],
					"disabled" : 0,
					"hidden" : 0,
					"source" : [ "obj-15", 0 ]
				}

			}
, 			{
				"patchline" : 				{
					"destination" : [ "obj-108", 1 ],
					"disabled" : 0,
					"hidden" : 0,
					"midpoints" : [ 413.75, 290.0, 618.0, 290.0 ],
					"source" : [ "obj-16", 0 ]
				}

			}
, 			{
				"patchline" : 				{
					"destination" : [ "obj-20", 0 ],
					"disabled" : 0,
					"hidden" : 0,
					"source" : [ "obj-16", 0 ]
				}

			}
, 			{
				"patchline" : 				{
					"destination" : [ "obj-73", 0 ],
					"disabled" : 0,
					"hidden" : 0,
					"source" : [ "obj-17", 0 ]
				}

			}
, 			{
				"patchline" : 				{
					"destination" : [ "obj-89", 0 ],
					"disabled" : 0,
					"hidden" : 0,
					"source" : [ "obj-17", 0 ]
				}

			}
, 			{
				"patchline" : 				{
					"destination" : [ "obj-53", 0 ],
					"disabled" : 0,
					"hidden" : 0,
					"source" : [ "obj-18", 0 ]
				}

			}
, 			{
				"patchline" : 				{
					"destination" : [ "obj-22", 1 ],
					"disabled" : 0,
					"hidden" : 0,
					"source" : [ "obj-19", 2 ]
				}

			}
, 			{
				"patchline" : 				{
					"destination" : [ "obj-24", 0 ],
					"disabled" : 0,
					"hidden" : 0,
					"source" : [ "obj-19", 0 ]
				}

			}
, 			{
				"patchline" : 				{
					"destination" : [ "obj-58", 0 ],
					"disabled" : 0,
					"hidden" : 0,
					"source" : [ "obj-2", 0 ]
				}

			}
, 			{
				"patchline" : 				{
					"destination" : [ "obj-105", 0 ],
					"disabled" : 0,
					"hidden" : 0,
					"midpoints" : [ 413.75, 323.0, 509.25, 323.0 ],
					"source" : [ "obj-20", 0 ]
				}

			}
, 			{
				"patchline" : 				{
					"destination" : [ "obj-25", 0 ],
					"disabled" : 0,
					"hidden" : 0,
					"source" : [ "obj-20", 0 ]
				}

			}
, 			{
				"patchline" : 				{
					"destination" : [ "obj-5", 1 ],
					"disabled" : 0,
					"hidden" : 0,
					"midpoints" : [ 413.75, 329.0, 492.0, 329.0, 492.0, 394.0, 492.0, 394.0, 492.0, 621.0, 452.25, 621.0 ],
					"source" : [ "obj-20", 0 ]
				}

			}
, 			{
				"patchline" : 				{
					"destination" : [ "obj-18", 0 ],
					"disabled" : 0,
					"hidden" : 0,
					"source" : [ "obj-21", 0 ]
				}

			}
, 			{
				"patchline" : 				{
					"destination" : [ "obj-42", 0 ],
					"disabled" : 0,
					"hidden" : 0,
					"source" : [ "obj-22", 0 ]
				}

			}
, 			{
				"patchline" : 				{
					"destination" : [ "obj-22", 0 ],
					"disabled" : 0,
					"hidden" : 0,
					"source" : [ "obj-24", 0 ]
				}

			}
, 			{
				"patchline" : 				{
					"destination" : [ "obj-100", 0 ],
					"disabled" : 0,
					"hidden" : 0,
					"midpoints" : [ 413.75, 362.0, 500.0, 362.0, 500.0, 497.0, 500.0, 497.0, 500.0, 688.0, 439.75, 688.0 ],
					"source" : [ "obj-25", 0 ]
				}

			}
, 			{
				"patchline" : 				{
					"destination" : [ "obj-101", 0 ],
					"disabled" : 0,
					"hidden" : 0,
					"midpoints" : [ 413.75, 370.0, 429.25, 370.0 ],
					"source" : [ "obj-25", 0 ]
				}

			}
, 			{
				"patchline" : 				{
					"destination" : [ "obj-19", 1 ],
					"disabled" : 0,
					"hidden" : 0,
					"source" : [ "obj-25", 0 ]
				}

			}
, 			{
				"patchline" : 				{
					"destination" : [ "obj-27", 0 ],
					"disabled" : 0,
					"hidden" : 0,
					"source" : [ "obj-26", 0 ]
				}

			}
, 			{
				"patchline" : 				{
					"destination" : [ "obj-46", 0 ],
					"disabled" : 0,
					"hidden" : 0,
					"source" : [ "obj-27", 0 ]
				}

			}
, 			{
				"patchline" : 				{
					"destination" : [ "obj-89", 0 ],
					"disabled" : 0,
					"hidden" : 0,
					"midpoints" : [ 139.466675, 645.200012, 255.966675, 645.200012, 255.966675, 541.200012, 116.5, 541.200012 ],
					"source" : [ "obj-28", 0 ]
				}

			}
, 			{
				"patchline" : 				{
					"destination" : [ "obj-24", 1 ],
					"disabled" : 0,
					"hidden" : 0,
					"source" : [ "obj-3", 0 ]
				}

			}
, 			{
				"patchline" : 				{
					"destination" : [ "obj-89", 0 ],
					"disabled" : 0,
					"hidden" : 0,
					"source" : [ "obj-30", 0 ]
				}

			}
, 			{
				"patchline" : 				{
					"destination" : [ "obj-47", 0 ],
					"disabled" : 0,
					"hidden" : 0,
					"midpoints" : [ 125.966675, 147.0, 125.966675, 147.0 ],
					"source" : [ "obj-31", 0 ]
				}

			}
, 			{
				"patchline" : 				{
					"destination" : [ "obj-43", 0 ],
					"disabled" : 0,
					"hidden" : 0,
					"source" : [ "obj-32", 0 ]
				}

			}
, 			{
				"patchline" : 				{
					"destination" : [ "obj-63", 0 ],
					"disabled" : 0,
					"hidden" : 0,
					"source" : [ "obj-32", 0 ]
				}

			}
, 			{
				"patchline" : 				{
					"destination" : [ "obj-31", 1 ],
					"disabled" : 0,
					"hidden" : 0,
					"source" : [ "obj-35", 0 ]
				}

			}
, 			{
				"patchline" : 				{
					"destination" : [ "obj-32", 0 ],
					"disabled" : 0,
					"hidden" : 0,
					"source" : [ "obj-41", 0 ]
				}

			}
, 			{
				"patchline" : 				{
					"destination" : [ "obj-41", 0 ],
					"disabled" : 0,
					"hidden" : 0,
					"source" : [ "obj-42", 0 ]
				}

			}
, 			{
				"patchline" : 				{
					"destination" : [ "obj-49", 0 ],
					"disabled" : 0,
					"hidden" : 0,
					"source" : [ "obj-42", 1 ]
				}

			}
, 			{
				"patchline" : 				{
					"destination" : [ "obj-8", 0 ],
					"disabled" : 0,
					"hidden" : 0,
					"source" : [ "obj-44", 0 ]
				}

			}
, 			{
				"patchline" : 				{
					"destination" : [ "obj-102", 0 ],
					"disabled" : 0,
					"hidden" : 0,
					"source" : [ "obj-45", 2 ]
				}

			}
, 			{
				"patchline" : 				{
					"destination" : [ "obj-106", 0 ],
					"disabled" : 0,
					"hidden" : 0,
					"midpoints" : [ 394.75, 611.0, 490.75, 611.0, 490.75, 611.0, 516.0, 611.0 ],
					"source" : [ "obj-45", 1 ]
				}

			}
, 			{
				"patchline" : 				{
					"destination" : [ "obj-19", 0 ],
					"disabled" : 0,
					"hidden" : 0,
					"source" : [ "obj-45", 0 ]
				}

			}
, 			{
				"patchline" : 				{
					"destination" : [ "obj-5", 0 ],
					"disabled" : 0,
					"hidden" : 0,
					"midpoints" : [ 360.25, 620.0, 394.75, 620.0 ],
					"source" : [ "obj-45", 0 ]
				}

			}
, 			{
				"patchline" : 				{
					"destination" : [ "obj-31", 0 ],
					"disabled" : 0,
					"hidden" : 0,
					"source" : [ "obj-46", 0 ]
				}

			}
, 			{
				"patchline" : 				{
					"destination" : [ "obj-35", 0 ],
					"disabled" : 0,
					"hidden" : 0,
					"source" : [ "obj-46", 0 ]
				}

			}
, 			{
				"patchline" : 				{
					"destination" : [ "obj-9", 0 ],
					"disabled" : 0,
					"hidden" : 0,
					"source" : [ "obj-46", 0 ]
				}

			}
, 			{
				"patchline" : 				{
					"destination" : [ "obj-15", 0 ],
					"disabled" : 0,
					"hidden" : 0,
					"source" : [ "obj-47", 0 ]
				}

			}
, 			{
				"patchline" : 				{
					"destination" : [ "obj-14", 0 ],
					"disabled" : 0,
					"hidden" : 0,
					"source" : [ "obj-49", 0 ]
				}

			}
, 			{
				"patchline" : 				{
					"destination" : [ "obj-3", 0 ],
					"disabled" : 0,
					"hidden" : 0,
					"source" : [ "obj-5", 0 ]
				}

			}
, 			{
				"patchline" : 				{
					"destination" : [ "obj-6", 0 ],
					"disabled" : 0,
					"hidden" : 0,
					"source" : [ "obj-50", 0 ]
				}

			}
, 			{
				"patchline" : 				{
					"destination" : [ "obj-50", 0 ],
					"disabled" : 0,
					"hidden" : 0,
					"source" : [ "obj-53", 1 ]
				}

			}
, 			{
				"patchline" : 				{
					"destination" : [ "obj-64", 0 ],
					"disabled" : 0,
					"hidden" : 0,
					"source" : [ "obj-53", 0 ]
				}

			}
, 			{
				"patchline" : 				{
					"destination" : [ "obj-10", 0 ],
					"disabled" : 0,
					"hidden" : 0,
					"source" : [ "obj-54", 0 ]
				}

			}
, 			{
				"patchline" : 				{
					"destination" : [ "obj-15", 0 ],
					"disabled" : 0,
					"hidden" : 0,
					"source" : [ "obj-55", 0 ]
				}

			}
, 			{
				"patchline" : 				{
					"destination" : [ "obj-10", 0 ],
					"disabled" : 0,
					"hidden" : 0,
					"source" : [ "obj-57", 1 ]
				}

			}
, 			{
				"patchline" : 				{
					"destination" : [ "obj-10", 0 ],
					"disabled" : 0,
					"hidden" : 0,
					"source" : [ "obj-57", 0 ]
				}

			}
, 			{
				"patchline" : 				{
					"destination" : [ "obj-55", 0 ],
					"disabled" : 0,
					"hidden" : 0,
					"midpoints" : [ 595.0, 175.0, 465.0, 175.0, 465.0, 154.0, 240.0, 154.0, 240.0, 154.0, 29.5, 154.0 ],
					"source" : [ "obj-57", 1 ]
				}

			}
, 			{
				"patchline" : 				{
					"destination" : [ "obj-111", 1 ],
					"disabled" : 0,
					"hidden" : 0,
					"midpoints" : [ 435.416656, 255.200012, 736.25, 255.200012, 736.25, 288.200012, 685.5, 288.200012 ],
					"source" : [ "obj-58", 1 ]
				}

			}
, 			{
				"patchline" : 				{
					"destination" : [ "obj-16", 0 ],
					"disabled" : 0,
					"hidden" : 0,
					"source" : [ "obj-58", 0 ]
				}

			}
, 			{
				"patchline" : 				{
					"destination" : [ "obj-41", 1 ],
					"disabled" : 0,
					"hidden" : 0,
					"source" : [ "obj-6", 1 ]
				}

			}
, 			{
				"patchline" : 				{
					"destination" : [ "obj-45", 0 ],
					"disabled" : 0,
					"hidden" : 0,
					"source" : [ "obj-6", 0 ]
				}

			}
, 			{
				"patchline" : 				{
					"destination" : [ "obj-64", 4 ],
					"disabled" : 0,
					"hidden" : 0,
					"source" : [ "obj-62", 1 ]
				}

			}
, 			{
				"patchline" : 				{
					"destination" : [ "obj-80", 0 ],
					"disabled" : 0,
					"hidden" : 0,
					"source" : [ "obj-63", 0 ]
				}

			}
, 			{
				"patchline" : 				{
					"destination" : [ "obj-44", 0 ],
					"disabled" : 0,
					"hidden" : 0,
					"source" : [ "obj-64", 2 ]
				}

			}
, 			{
				"patchline" : 				{
					"destination" : [ "obj-73", 0 ],
					"disabled" : 0,
					"hidden" : 0,
					"source" : [ "obj-64", 2 ]
				}

			}
, 			{
				"patchline" : 				{
					"destination" : [ "obj-64", 3 ],
					"disabled" : 0,
					"hidden" : 0,
					"midpoints" : [ 83.46666, 447.599976, 103.399994, 447.599976, 103.399994, 341.999969, 73.724991, 341.999969 ],
					"source" : [ "obj-73", 1 ]
				}

			}
, 			{
				"patchline" : 				{
					"destination" : [ "obj-79", 0 ],
					"disabled" : 0,
					"hidden" : 0,
					"midpoints" : [ 68.46666, 448.999969, 3.999992, 448.999969, 3.999992, 134.999969, 76.5, 134.999969 ],
					"source" : [ "obj-73", 0 ]
				}

			}
, 			{
				"patchline" : 				{
					"destination" : [ "obj-103", 1 ],
					"disabled" : 0,
					"hidden" : 0,
					"midpoints" : [ 360.25, 1145.0, 381.25, 1145.0 ],
					"source" : [ "obj-75", 0 ]
				}

			}
, 			{
				"patchline" : 				{
					"destination" : [ "obj-15", 0 ],
					"disabled" : 0,
					"hidden" : 0,
					"source" : [ "obj-79", 0 ]
				}

			}
, 			{
				"patchline" : 				{
					"destination" : [ "obj-11", 0 ],
					"disabled" : 0,
					"hidden" : 0,
					"source" : [ "obj-8", 0 ]
				}

			}
, 			{
				"patchline" : 				{
					"destination" : [ "obj-75", 0 ],
					"disabled" : 0,
					"hidden" : 0,
					"source" : [ "obj-80", 0 ]
				}

			}
, 			{
				"patchline" : 				{
					"destination" : [ "obj-91", 0 ],
					"disabled" : 0,
					"hidden" : 0,
					"source" : [ "obj-83", 0 ]
				}

			}
, 			{
				"patchline" : 				{
					"destination" : [ "obj-37", 1 ],
					"disabled" : 0,
					"hidden" : 0,
					"source" : [ "obj-89", 0 ]
				}

			}
, 			{
				"patchline" : 				{
					"destination" : [ "obj-97", 0 ],
					"disabled" : 0,
					"hidden" : 0,
					"midpoints" : [ 116.5, 568.200012, 139.466675, 568.200012 ],
					"source" : [ "obj-89", 0 ]
				}

			}
, 			{
				"patchline" : 				{
					"destination" : [ "obj-7", 0 ],
					"disabled" : 0,
					"hidden" : 0,
					"source" : [ "obj-9", 0 ]
				}

			}
, 			{
				"patchline" : 				{
					"destination" : [ "obj-75", 0 ],
					"disabled" : 0,
					"hidden" : 0,
					"source" : [ "obj-91", 0 ]
				}

			}
, 			{
				"patchline" : 				{
					"destination" : [ "obj-28", 0 ],
					"disabled" : 0,
					"hidden" : 0,
					"source" : [ "obj-96", 0 ]
				}

			}
, 			{
				"patchline" : 				{
					"destination" : [ "obj-96", 0 ],
					"disabled" : 0,
					"hidden" : 0,
					"source" : [ "obj-97", 0 ]
				}

			}
 ]
	}

}
